<svg width="32" height="32" viewBox="0 0 32 32" fill="none" xmlns="http://www.w3.org/2000/svg">
<rect width="32" height="32" rx="16" fill="white"/>
<path fill-rule="evenodd" clip-rule="evenodd" d="M19.7253 7.71273C19.7253 8.93479 18.0219 9.92546 15.9207 9.92546C13.8195 9.92546 12.1161 8.93479 12.1161 7.71273C12.1161 6.49067 13.8195 5.5 15.9207 5.5C18.0219 5.5 19.7253 6.49067 19.7253 7.71273ZM19.7253 24.3853C19.7253 25.6074 18.0219 26.5981 15.9207 26.5981C13.8195 26.5981 12.1161 25.6074 12.1161 24.3853C12.1161 23.1633 13.8195 22.1726 15.9207 22.1726C18.0219 22.1726 19.7253 23.1633 19.7253 24.3853ZM10.6186 12.9884C11.6692 11.1688 11.6623 9.19799 10.6033 8.58655C9.54431 7.97511 7.83412 8.95455 6.78352 10.7742C5.73291 12.5939 5.73973 14.5646 6.79875 15.1761C7.85776 15.7875 9.56795 14.8081 10.6186 12.9884ZM25.0422 16.9226C26.1005 17.5336 26.1068 19.5041 25.0562 21.3237C24.0055 23.1434 22.2959 24.1232 21.2376 23.5121C20.1793 22.9011 20.1731 20.9306 21.2237 19.111C22.2743 17.2913 23.9839 16.3116 25.0422 16.9226ZM10.6041 23.5115C11.6631 22.9 11.6699 20.9292 10.6193 19.1096C9.56868 17.2899 7.8585 16.3105 6.79948 16.9219C5.74046 17.5334 5.73364 19.5042 6.78425 21.3238C7.83485 23.1435 9.54504 24.1229 10.6041 23.5115ZM25.0571 10.7754C26.1077 12.595 26.1015 14.5655 25.0432 15.1765C23.9849 15.7876 22.2753 14.8078 21.2247 12.9881C20.1741 11.1685 20.1803 9.19802 21.2386 8.58699C22.2969 7.97596 24.0065 8.95575 25.0571 10.7754Z" fill="#E6007A"/>
<path d="M26 31.5C29.0376 31.5 31.5 29.0376 31.5 26C31.5 22.9624 29.0376 20.5 26 20.5C22.9624 20.5 20.5 22.9624 20.5 26C20.5 29.0376 22.9624 31.5 26 31.5Z" fill="url(#paint0_linear_40146_7039)" stroke="white"/>
<path d="M25.7921 28.188L23.7592 25.1387C23.6484 24.9725 23.7675 24.75 23.9672 24.75H24.8711C24.952 24.75 25.0279 24.7892 25.0748 24.8551L25.7963 25.8697C25.896 26.0099 26.1042 26.0099 26.2038 25.8697L26.9253 24.8551C26.9722 24.7892 27.0482 24.75 27.1291 24.75H28.033C28.2326 24.75 28.3517 24.9725 28.241 25.1387L26.2081 28.188C26.1091 28.3364 25.891 28.3364 25.7921 28.188Z" fill="white"/>
<path fill-rule="evenodd" clip-rule="evenodd" d="M20.8781 29.1267C19.3591 29.6914 17.7156 30 16 30C8.26801 30 2 23.732 2 16C2 8.26801 8.26801 2 16 2C23.732 2 30 8.26801 30 16C30 17.7156 29.6914 19.3591 29.1267 20.8781C29.7369 21.2514 30.2752 21.7307 30.7161 22.2903C31.5425 20.3595 32 18.2332 32 16C32 7.16344 24.8366 0 16 0C7.16344 0 0 7.16344 0 16C0 24.8366 7.16344 32 16 32C18.2332 32 20.3595 31.5425 22.2903 30.7161C21.7307 30.2752 21.2514 29.7369 20.8781 29.1267Z" fill="url(#paint1_linear_40146_7039)"/>
<defs>
<linearGradient id="paint0_linear_40146_7039" x1="26" y1="21" x2="26" y2="31" gradientUnits="userSpaceOnUse">
<stop stop-color="#7AEDCF"/>
<stop offset="0.201333" stop-color="#68CEFA"/>
<stop offset="0.403244" stop-color="#689CF8"/>
<stop offset="0.602076" stop-color="#AC57C0"/>
<stop offset="0.801867" stop-color="#E65659"/>
<stop offset="1" stop-color="#F2C241"/>
</linearGradient>
<linearGradient id="paint1_linear_40146_7039" x1="16.0001" y1="0" x2="16.0001" y2="32" gradientUnits="userSpaceOnUse">
<stop stop-color="#7AEDCF"/>
<stop offset="0.201333" stop-color="#68CEFA"/>
<stop offset="0.403244" stop-color="#689CF8"/>
<stop offset="0.602076" stop-color="#AC57C0"/>
<stop offset="0.801867" stop-color="#E65659"/>
<stop offset="1" stop-color="#F2C241"/>
</linearGradient>
</defs>
</svg>
