<svg xmlns="http://www.w3.org/2000/svg" xmlns:xlink="http://www.w3.org/1999/xlink" width="500" zoomAndPan="magnify" viewBox="0 0 375 374.999991" height="500" preserveAspectRatio="xMidYMid meet" version="1.0"><defs><clipPath id="fd5615264d"><path d="M 123 292 L 253 292 L 253 368.90625 L 123 368.90625 Z M 123 292 " clip-rule="nonzero"/></clipPath></defs><path fill="#ff2670" d="M 187.921875 82.863281 C 223.511719 82.863281 252.355469 65.878906 252.355469 44.929688 C 252.355469 23.980469 223.511719 6.996094 187.921875 6.996094 C 152.339844 6.996094 123.492188 23.980469 123.492188 44.929688 C 123.492188 65.878906 152.339844 82.863281 187.921875 82.863281 Z M 187.921875 82.863281 " fill-opacity="1" fill-rule="nonzero"/><g clip-path="url(#fd5615264d)"><path fill="#ff2670" d="M 187.921875 368.523438 C 223.511719 368.523438 252.355469 351.539062 252.355469 330.589844 C 252.355469 309.640625 223.511719 292.65625 187.921875 292.65625 C 152.339844 292.65625 123.492188 309.640625 123.492188 330.589844 C 123.492188 351.539062 152.339844 368.523438 187.921875 368.523438 Z M 187.921875 368.523438 " fill-opacity="1" fill-rule="nonzero"/></g><path fill="#ff2670" d="M 98.117188 135.308594 C 115.910156 104.128906 115.800781 70.367188 97.871094 59.894531 C 79.941406 49.421875 50.984375 66.207031 33.191406 97.382812 C 15.398438 128.5625 15.507812 162.324219 33.4375 172.796875 C 51.367188 183.269531 80.324219 166.484375 98.117188 135.308594 Z M 98.117188 135.308594 " fill-opacity="1" fill-rule="nonzero"/><path fill="#ff2670" d="M 342.683594 278.136719 C 360.476562 246.960938 360.363281 213.195312 342.429688 202.722656 C 324.496094 192.246094 295.535156 209.027344 277.742188 240.203125 C 259.945312 271.382812 260.0625 305.144531 277.996094 315.621094 C 295.929688 326.09375 324.890625 309.3125 342.683594 278.136719 Z M 342.683594 278.136719 " fill-opacity="1" fill-rule="nonzero"/><path fill="#ff2670" d="M 97.871094 315.632812 C 115.804688 305.15625 115.917969 271.390625 98.128906 240.214844 C 80.335938 209.039062 51.371094 192.253906 33.4375 202.730469 C 15.503906 213.203125 15.390625 246.96875 33.183594 278.148438 C 50.976562 309.324219 79.9375 326.105469 97.871094 315.632812 Z M 97.871094 315.632812 " fill-opacity="1" fill-rule="nonzero"/><path fill="#ff2670" d="M 342.421875 172.789062 C 360.355469 162.3125 360.472656 128.550781 342.679688 97.371094 C 324.886719 66.195312 295.921875 49.414062 277.988281 59.886719 C 260.054688 70.363281 259.941406 104.128906 277.734375 135.304688 C 295.527344 166.480469 324.488281 183.261719 342.421875 172.789062 Z M 342.421875 172.789062 " fill-opacity="1" fill-rule="nonzero"/></svg>